<?xml version="1.0" encoding="iso-8859-1"?>
<!-- Generator: Adobe Illustrator 18.0.0, SVG Export Plug-In . SVG Version: 6.00 Build 0)  -->
<!DOCTYPE svg PUBLIC "-//W3C//DTD SVG 1.1//EN" "http://www.w3.org/Graphics/SVG/1.1/DTD/svg11.dtd">
<svg version="1.1" id="Capa_1" xmlns="http://www.w3.org/2000/svg" xmlns:xlink="http://www.w3.org/1999/xlink" x="0px" y="0px"
	 viewBox="0 0 250.758 250.758" style="enable-background:new 0 0 250.758 250.758;" xml:space="preserve">
<g>
	<path d="M249.391,180.858L165.222,61.267c-0.028-0.039-0.061-0.073-0.089-0.111c-0.126-0.172-0.258-0.339-0.398-0.499
		c-0.06-0.068-0.12-0.135-0.182-0.2c-0.133-0.142-0.272-0.278-0.417-0.409c-0.062-0.057-0.123-0.115-0.187-0.17
		c-0.197-0.168-0.401-0.327-0.615-0.475c-0.01-0.007-0.02-0.016-0.031-0.023c-0.232-0.158-0.475-0.301-0.724-0.432
		c-0.049-0.026-0.1-0.047-0.149-0.072c-0.199-0.099-0.402-0.191-0.61-0.272c-0.071-0.028-0.143-0.053-0.215-0.079
		c-0.193-0.069-0.388-0.129-0.588-0.182c-0.079-0.021-0.157-0.043-0.237-0.061c-0.203-0.047-0.409-0.083-0.617-0.113
		c-0.075-0.011-0.148-0.026-0.223-0.034c-0.28-0.032-0.563-0.052-0.851-0.052h-67.42c-2.44,0-4.729,1.188-6.133,3.184L1.367,180.858
		c-1.612,2.29-1.813,5.286-0.524,7.771c1.29,2.485,3.857,4.045,6.657,4.045h67.406c0.002,0,0.004,0,0.007,0c0.003,0,0.005,0,0.008,0
		h84.167h84.169c2.8,0,5.367-1.56,6.657-4.045C251.204,186.144,251.003,183.147,249.391,180.858z M151.589,177.674h-62.22
		l62.22-88.404V177.674z M95.562,73.083h49.078L71.028,177.674H21.95L95.562,73.083z M166.589,177.674V89.27l62.219,88.404H166.589z
		"/>
</g>
<g>
</g>
<g>
</g>
<g>
</g>
<g>
</g>
<g>
</g>
<g>
</g>
<g>
</g>
<g>
</g>
<g>
</g>
<g>
</g>
<g>
</g>
<g>
</g>
<g>
</g>
<g>
</g>
<g>
</g>
</svg>
